# xmcd CD Database Entry
#
# Track frame offsets:
# 150
# 11497
# 30911
# 43616
# 65053
# 80167
# 87662
# 100769
# 105871
# 117628
# 127102
# 131872
# 141984
# 157338
# 169328
# 179755
# 194092
# 203759
# 217221
# 228063
# 238302
# 251824
# 261026
#
# Disc length: 3626 seconds
#
# Revision: 3
# Processed by: cddbd v1.4PL0 Copyright (c) Steve Scherf et al.
# Submitted via: tcd 2.0b
#
DISCID=680e2817
DTITLE=Mendelssohn - Lieder ohne Worte
DYEAR=1900
DGENRE=
TTITLE0=no 20, Es, opus 53/2
TTITLE1=no 19, As, opus 53/1
TTITLE2=no 21, g, opus 53/3
TTITLE3=no 7, Es, opus 30/1
TTITLE4=no 25, G, opus 62/1
TTITLE5=no 45, C, opus 102/3
TTITLE6=no 37, F, opus 85/1
TTITLE7=no 47, A, opus 102/5
TTITLE8=no 15, E, opus 38/3
TTITLE9=no 48, C, opus 102/6
TTITLE10=no 38, a, opus 85/2
TTITLE11=no 9, E, opus 30/3
TTITLE12=no 5, fis, opus 19/5
TTITLE13=no 35, b, opus 67/5
TTITLE14=no 32, fis, opus 67/2
TTITLE15=no 40, D, opus 85/4
TTITLE16=no 36, E, opus 67/6
TTITLE17=no 16, A, opus 38/4
TTITLE18=no 22, F, opus 53/4
TTITLE19=no 8, bes, opus 30/2
TTITLE20=no 31, Es, opus 67/1
TTITLE21=no 26, Bes, opus 62/2
TTITLE22=no 33, Bes, opus 67/3
EXTD=Peter Nagy, piano
EXTT0=Widmung. Allegro non troppo
EXTT1=Andante con moto
EXTT2=Presto agitato
EXTT3=Andante espressivo
EXTT4=Andante espressivo
EXTT5=Presto
EXTT6=Andante espressivo
EXTT7=Kinderstueck. Allegro vivace
EXTT8=Presto e molto vivace
EXTT9=Andante
EXTT10=Allegro agitato
EXTT11=Adagio non troppo
EXTT12=Piano agitato
EXTT13=Schaefers Klagelied. Moderato
EXTT14=Allegro leggiero
EXTT15=Elegie. Andante sostenuto
EXTT16=Wiegenlied. 
EXTT17=
EXTT18=
EXTT19=
EXTT20=
EXTT21=
EXTT22=
PLAYORDER=
